<svg xmlns="http://www.w3.org/2000/svg" viewBox="0 0 162.02 161.94"><defs><style>.email{fill:#589d44;}</style></defs><title>Email</title><path class="email" d="M129.63,41.79l-98.33,1,1.94,77.37,97.48-1.08Zm-7,67.39-1.22-.65,1.22.65Zm-1.19-.71-23.64-23L121.72,55l-.25,53.51ZM40.25,55.29l24.56,26.4L43,109,40.25,55.29ZM81.86,88,46.64,50.76h69L81.86,88ZM71.17,89.49l9.33,9,10.39-8.74,19.07,21H51.85L71.17,89.49Zm90.72-12.87a79.33,79.33,0,0,0-15.7-43.72A80.31,80.31,0,0,0,101.46,2.62,70.88,70.88,0,0,0,89.88.53C88.58.41,87.27.32,86,.24L84,.12l-.3,0L79.15,0l-.67.07-.24,0A79.65,79.65,0,0,0,52.43,5.25a81.12,81.12,0,0,0-48.8,52.1A79.51,79.51,0,0,0,.52,73.07c-.09,1-.16,2-.24,3,0,.63-.09,1.25-.13,1.83l-.1.45,0,4.68,0,.3.09.69c.05.38.11.76.13,1.14a80.15,80.15,0,0,0,9.18,33.48,81.11,81.11,0,0,0,52.33,40.93,79.48,79.48,0,0,0,13.44,2.11c2.08.15,4.08.22,6,.22,1.62,0,3.22-.05,4.81-.15a79.69,79.69,0,0,0,41.41-14.47,80.3,80.3,0,0,0,31.73-45,80.87,80.87,0,0,0,2.7-25.67Zm-33.8,51.55a66,66,0,0,1-46.91,19.45h-.13A66.63,66.63,0,0,1,81,14.36h.13a66.61,66.61,0,0,1,47,113.81Z"/></svg>