<svg id="flourish" xmlns="http://www.w3.org/2000/svg" viewBox="0 0 588.95 423.72"><defs><style>.a{fill:#6d6e71;}</style></defs><title>Flourish</title><path class="a" d="M550.9,45.77c19.8,27.27,5.44,59.28-24.3,69.74a62.16,62.16,0,0,1-23,3.18c-4.38-.21-13.45-1.22-7.16,4.68,3.81,3.58,38.7,9.95,70.72,40.93,4,3.82,9.88,10.23,15.2,11.22,2.52.47,7.89-2.82,6.29,1.07-1.79,4.39-7.2,6.39-11.79,6.43a13.73,13.73,0,0,1-6-1.33c-1.14-.51-3.16-1.76-2.71.5,1.25,6.45,7.8,10.35,9,16.73,1.1,6.06-6.27,11.9-7.6,18.32a52.21,52.21,0,0,0-.16,6.88c2.2,11.37,4.48,22.14,14.89,29.78a31.09,31.09,0,0,1-8.3-3.11c-6.8-4.53-11.29-13.74-14.07-27.75-.67-4.48-1.46-9.13-2.38-13.78-4.6-23.23-12.45-46.32-24.78-47.4,6.28,5.5,14,28.2,20,50,1.19,4.37,2.29,8.7,3.3,12.86,2.06,10.15,7.75,20.58,18,26a19.28,19.28,0,0,0,8.3,3.11c-13.91.71-24.32-6.93-28.72-17.73-1.38-2.79-2.59-5.66-3.77-8.48a43.07,43.07,0,0,0-4.94-10c-2.13-3.07-3.5-4.89-7.7-4.53-3.79.32-6.16,1.78-7.81,4.48-1.11,1.82-7.92,4.68-6.08.19,2.47-6,6-11.74,7.34-18.08,1.25-6,.32-11.22-1.72-17-1.25-3.5-3.21-8.47-6.11-11.06-4.29-3.81-6.55.17-10.16,2.7s-17.1,7-19.79,1c-1.5-3.35,2.7-6.16,4.22-8.45,2.13-3.23,2.9-7.63,2.75-11.51-.69-19.55-28.83-31.82-42.8-37.51-16.73-6.82-34.1-8.81-51.56-12.35-96.24-19.47-153.76,6.8-209.15,48.09,51.22-23.6,88.14-29.35,124.6-20.39,4.29,1.06,8.73,1.61,12.83,3.25,2.92,1.16,7.52,4.74,5.41,8.27-1.51,2.5-5.8,1.84-7.31,4.33-1.76,2.88,1.53,5.5,3.46,7.5,10.54,10.93,17.26,28.24,10.24,42.75-6.52,13.47-19.67,24.35-34.91,25.56-.95.07-1.9.11-2.85.11-16.29,0-33.56-10.53-31.93-27.22.81-8.35,6.7-19.27,18.93-16.58,13.68,3.39,12.37,18.11,10.47,19.17s-5.67-2.56-7.81-3.35c-10.44-3.86-16.16-4.38-17.22,2.52-1,6.4,2.46,11.38,8.2,15.33,3,2.08,6.67,2.6,7.14.65,1.56-2.9.46-7.1,5.27-6.94,3.11.1,5.52,2.35,7.94,3.85a17.07,17.07,0,0,0,9.61,2.8c15.78,0,26-16.26,23.73-31-1.45-9.58-15.49-17.46-23-22.09A125.78,125.78,0,0,0,282.9,146.3c-20.07-4.49-41.14-2.4-58.94,8.36-40.55,21.89-39.72,40-31.38,81.39.86,4.27-1.09,10.31-6.22,8.79-3.94-1.17-5.93-5.84-7.69-9.54-1.36-2.88-2.53-8.94-4.95-10.87-4.9-3.9-8.87,5.09-9.84,8.88-1.84,7.17-.47,14.94,1.67,21.71A45.88,45.88,0,0,0,178,275.2c6.47,5.89,18.11,17.36,36.66,10.75,3.13-1.11,10.3-3.59,13.26-1.71,1.49.95,0,6.29-1.09,7.33-30.8,29.21-63.86,5-66.48,3.68-3.89-1.94-4.53,5.69-4.86,8.11-.65,4.75-1.46,9.49-2.21,14.23-.42,2.65-1.3,5.8-.54,8.42,1.89,6.51,11.31,11.19,17.35,12.23,2,.34,4.09.11,6,.94,2.55,1.11.86,2.83-.91,3.72a9.85,9.85,0,0,1-7.59.26c-2.64-.86-5.15-2.61-8.08-2-1.76.38-3.25,1.59-5,2.1-3.73,1.11-6.35-1.32-8.16-4.35-3.05-5.09-3.29-9.68-4.48-15.45-.7-3.37-2-8-6.22-7.56-3.7.35-5.26,5-5.85,8.21-7.42,30.85,15.41,90.52,82.91,78.61,10.08-4,20.12-12.15,24.38-22.69a24.35,24.35,0,0,0,1-16.16,14.83,14.83,0,0,0-4.69-7.44c-2.64-2.08-5.52-2.73-8.61-3.88-13.64-5,5.16-9.83.22-16.18-2.76-3.55-12.38-2.48-16.18-1.09a29.83,29.83,0,0,0-11,7.67c-3.67,4.17-4.09,9.15-.94,13.41a10.57,10.57,0,0,0,2.52,2.43c.91.62,2.37.73,2.74,1.95.71,2.26-2.71,3.35-4.12,3.74-4.32,1.19-8.46-2-10-6.27-1.85-5.35-.19-9.9,3.41-14.42,7.24-9.09,18.22-14.14,29.26-12a31,31,0,0,1,23.41,22.54c2.78,11.32-.3,23.58-7,33.28-6.1,8.85-14.57,14.58-23.95,18.75-5.84,2.6-13.09,4.89-19.39,4.34-3.48-.31-14.31-2.66-15,2.9-.27,2,1,4.09.52,6.18-.75,3-4.55,4.24-7.08,3.81-5.78-1-10.48-6.07-14.8-9.76C152,409.25,122.7,396.52,115,355.09c-1.32-5.12-3.7-9.74-9.21-9.19-5.76.59-10,8.13-14.08,11.76-7.8,6.93-17.81,11.72-27.54,14.85-10.59,3.4-23.65,4.22-34.14,1.33-22.15-6.1-36.44-30.7-27.17-52.49,3.35-7.88,9.24-15.5,17.33-18.87s18.81-1.28,21.39,8c2.18,7.89-4.54,18.05-13.14,17-7.07-.86-13-13.9-20.27-3.93-5.33,7.34-2.42,19.62,1.05,26.81a31.31,31.31,0,0,0,21.3,16.83c6,1.41,16,2.52,18.62-5.26,1.92-5.64-1-11.75,1.17-17.42,1-2.48,3.66-6.93,7-5.42A4.93,4.93,0,0,1,59,340.62c2.56,3.32,2.18,7.84,4.08,11.43,8.57,16.12,30.6-1,38.12-10.53,12.92-16.31,18.4-38.32,22.3-58.35,4.57-23.39,10.48-45,20.72-66.63,42.9-90.75,148.7-135,211.45-128.67-.33-.41-.66-.82-1-1.22C348.15,78.81,339.36,69.6,328.74,68c-4.15-.64-21.8,2.77-23.44-2.85-1.08-3.7,4.63-7.8,7.09-9.33,2.71-1.7,7.38-3.54,6.16-7.57-.84-2.76-6-7.44-16.72-2.75-4.55,2-8.37,5.66-12,8.85-5.19,4.51-10.28,9.21-15.87,13.26a17.1,17.1,0,0,1-9.21,3.69A15.52,15.52,0,0,1,256.27,69c-2.44-1.44-13.69-12,1.14-33.52.24-.34,2.9-2.47,2.44-1.16a9.57,9.57,0,0,1-1.7,2.18c-7.08,8.78-.93,19.58,6.45,20.73,10.09,1.58,19.45-8.86,27.9-15.57,12.91-10.25,25.3-4.73,49.11,17.1,11.82,7,5.35-6,12.27-26.74C356.47,24.28,362,18,368,12.22c10.77-10.59,28.2-15.87,44-9.39,11.36,4.67,24.51,17.31,19.29,29.51-1.58,3.69-2.43-1.24-3.31-3.33a22.79,22.79,0,0,0-7.77-9.28c-5.86-4.08-15.22-6-15.94,2.93-.32,4,1.46,8.05,1.23,12-.21,3.43-2.95,5.66-5.33,7.78-1.92,1.7-4.18,3.45-6.93,3.43-5.17,0-4.2-3.85-4-7.52.52-7.67-3.43-13.71-12.16-14-7.1-.23-13.2,3.83-16.86,9.19-8.23,12-5.15,20.71,0,39.6A65.82,65.82,0,0,0,366.56,89l17,1.81A879.45,879.45,0,0,1,474,112.59c9.42,2.85,17.68,1.74,27.26,1.07,7.88-.57,18.76-.37,24.61-6.06,2.89-2.82,5.17-7.56,1-10.75-2.76-2.13-11.21-.6-10.25-4.18.86-3.27,7.11-3.26,9.67-3.13,4.69.25,6.92,1.43,9.39,5.2,2.31,3.52,2.69,6.47,7.39,4.16,4.09-2,6.52-6.62,8.15-10.59a37.69,37.69,0,0,0-.41-30c-9.22-20.16-38.29-39.08-57.8-20.75-4,3.76-6.6,9.76-3.79,15,2.65,5,8.69,6.58,13.32,9.42-1.33,8.66-20.2-1-23.24-4.74-4-5-5.52-12.45-2.07-17.94,1.69-2.68,4.76-4.2,5-7.61.24-2.89-2.22-4.56-.7-7.51,4.12-8,22.57-4.18,29.85-2.71,16,3.25,29.82,11,39.49,24.34"/></svg>