<svg xmlns="http://www.w3.org/2000/svg" viewBox="0 0 162.02 161.94"><defs><style>.phone{fill:#589d44;}</style></defs><title>Green Phone</title><path class="phone" d="M161.89,76.62a79.33,79.33,0,0,0-15.7-43.72A80.31,80.31,0,0,0,101.46,2.62,70.88,70.88,0,0,0,89.88.53C88.58.41,87.27.32,86,.24L84,.12l-.3,0L79.15,0l-.67.07-.24,0A79.65,79.65,0,0,0,52.43,5.25a81.12,81.12,0,0,0-48.8,52.1A79.51,79.51,0,0,0,.52,73.07c-.09,1-.16,2-.24,3,0,.63-.09,1.25-.13,1.83l-.1.45,0,4.68,0,.3.09.69c.05.38.11.76.13,1.14a80.15,80.15,0,0,0,9.18,33.48,81.11,81.11,0,0,0,52.33,40.93,79.48,79.48,0,0,0,13.44,2.11c2.08.15,4.08.22,6,.22,1.62,0,3.22-.05,4.81-.15a79.69,79.69,0,0,0,41.41-14.47,80.3,80.3,0,0,0,31.73-45,80.87,80.87,0,0,0,2.7-25.67Zm-33.8,51.55a66,66,0,0,1-46.91,19.45h-.13A66.63,66.63,0,0,1,81,14.36h.13a66.61,66.61,0,0,1,47,113.81ZM91.51,103.31q7.41,12.84,14.81,25.64c0,.07-.08.14-.13.17a38.74,38.74,0,0,1-7.06,3.37,15.14,15.14,0,0,1-12.55-1.27,49.17,49.17,0,0,1-8.07-5.66A89.48,89.48,0,0,1,65.69,112,134,134,0,0,1,46,77.05a84.55,84.55,0,0,1-4.06-14,49.26,49.26,0,0,1-1-11.3,14.3,14.3,0,0,1,5.13-10.82,41.29,41.29,0,0,1,6.61-4.44s.09,0,.21,0l14.83,25.7a1.89,1.89,0,0,0-.25.11,9.42,9.42,0,0,0-4.17,6.31,18.52,18.52,0,0,0-.19,6.3,42.22,42.22,0,0,0,7.47,18.49,34.07,34.07,0,0,0,6.7,7.38,17.9,17.9,0,0,0,6.45,3.48,9.93,9.93,0,0,0,7.37-.71A4.1,4.1,0,0,1,91.51,103.31Zm29.58,16.39a3.27,3.27,0,0,1-1.31,3.68,3,3,0,0,1-.33.21l-7.13,4.12a3.35,3.35,0,0,1-4.72-1.29l-3.76-6.51q-5-8.64-10-17.27a4.86,4.86,0,0,1-.6-1.5,3.18,3.18,0,0,1,1.52-3.36c.42-.27.87-.51,1.3-.76L102,93.59a3.42,3.42,0,0,1,1.86-.54,3.21,3.21,0,0,1,2.82,1.6c.55.89,1.06,1.8,1.58,2.71q6.14,10.61,12.25,21.23A5.7,5.7,0,0,1,121.09,119.7ZM55.52,36.22a3.68,3.68,0,0,1-.61-2.3,3.28,3.28,0,0,1,1.72-2.62L62.29,28l1.47-.85a3.3,3.3,0,0,1,4.76,1.29q3.95,6.8,7.85,13.58,3,5.16,5.95,10.31a3.47,3.47,0,0,1,.54,2.43,3.27,3.27,0,0,1-1.62,2.34c-.86.51-1.73,1-2.6,1.51l-4.58,2.65a3.41,3.41,0,0,1-1.86.53,3.2,3.2,0,0,1-2.82-1.61c-.56-.93-1.09-1.88-1.64-2.83Q61.64,46.8,55.52,36.22Z"/></svg>