<svg xmlns="http://www.w3.org/2000/svg" viewBox="0 0 82.36 239.21"><defs><style>.a{fill:#fff;}</style></defs><title>Asset 1</title><path class="a" d="M61.78,15.57a15.62,15.62,0,0,1-1.84,5.54c-2.12,4.11-13,13.16-14.47,14.85a20,20,0,0,1-1.7,2,4.86,4.86,0,0,1-2.25,1.13,4.34,4.34,0,0,1-2.13-.3,17.22,17.22,0,0,1-3-2.8C34.92,34.27,24,25.22,21.86,21.11A15.8,15.8,0,0,1,20,15.57c-.24-2.28-.44-3.48,2.76-3.86,5.25-.61,31-.61,36.22,0,3.21.38,3,1.58,2.77,3.86M63.8.06,18.63,0c-2.29.38-2.3.85-2.58,2.52-.52,3.09.21,16.45,1.18,19.8,1.68,5.78,5.95,9.8,10.45,14.23,5.83,5.74,3.95,9.7,4.27,16.39,0,.54,5.17,1.32,8.15,1.32a68.61,68.61,0,0,0,8.47-1c1-.37.92-1.73.78-5.24-.09-2.4-.27-4.86.77-7.19,1.25-2.79,4.12-4.56,6.54-6.72a25,25,0,0,0,8.48-16.55c.31-3.29,2-16.65-1.34-17.52M82.36,157.48c-3.31.39-13.57,1.77-16.48,1.87-6.3.19-12.72.6-15.16-5.38-2.17-5.31-2.14-13.24-1.8-19.09l-17.15.29c.35,4.9-.19,9.54-.48,14.54-.36,6.14-2.23,9-9.64,9.5-6.2.43-15.38-1.36-21.52-2.19,0,0-4.88,58.66,41.52,82.19,41.08-20.41,40.69-81.72,40.71-81.73M32.06,56.29v76.56H49V56.29a60.71,60.71,0,0,1-8.48.66,47.53,47.53,0,0,1-8.48-.66"/></svg>